# xmcd
#
# Track frame offsets: 
#        150
#        14356
#        32228
#        46503
#        64993
#        87372
#        102792
#        120114
#        132734
#        148070
#        172487
#
# Disc length: 2498 seconds
#
# Revision: 0
# Processed by: cddbd v1.5.2PL0 Copyright (c) Steve Scherf et al.
# Submitted via: ExactAudioCopy v1.3
#
DISCID=9909c00b
DTITLE=Porter and The Bluebonnet Rattlesnakes - Don't Go Baby It's Gonna
DTITLE=Get Weird Without You
DYEAR=2017
DGENRE=Alt. Country
TTITLE0=Bittersweet Creek
TTITLE1=Your Hometown
TTITLE2=War Paint
TTITLE3=Edith
TTITLE4=Go On and Leave Me
TTITLE5=Don't Hang Up Virginia
TTITLE6=Shit Got Dark
TTITLE7=Stoned in Traffic
TTITLE8=When We Were Young
TTITLE9=November Down
TTITLE10=East December
EXTD=
EXTT0=
EXTT1=
EXTT2=
EXTT3=
EXTT4=
EXTT5=
EXTT6=
EXTT7=
EXTT8=
EXTT9=
EXTT10=
PLAYORDER=
